<?xml version="1.0" standalone="no"?>
<!DOCTYPE svg PUBLIC "-//W3C//DTD SVG 20010904//EN"
 "http://www.w3.org/TR/2001/REC-SVG-20010904/DTD/svg10.dtd">
<svg version="1.0" xmlns="http://www.w3.org/2000/svg"
 width="379.000000pt" height="379.000000pt" viewBox="0 0 379.000000 379.000000"
 preserveAspectRatio="xMidYMid meet">
<metadata>
Created by potrace 1.14, written by Peter Selinger 2001-2017
</metadata>
<g transform="translate(0.000000,379.000000) scale(0.100000,-0.100000)"
fill="#000000" stroke="none">
<path d="M0 1895 l0 -1895 1895 0 1895 0 0 1895 0 1895 -1895 0 -1895 0 0
-1895z m1800 356 c0 -123 -3 -150 -15 -155 -11 -4 -15 1 -15 17 0 31 -18 47
-52 47 -21 0 -29 6 -34 25 -9 36 -33 31 -50 -10 -21 -51 -20 -312 2 -343 19
-27 71 -55 89 -48 11 4 11 11 -1 43 -26 75 -11 148 33 160 31 7 38 0 56 -67
35 -124 61 -314 51 -368 -6 -33 -8 -34 -20 -17 -14 18 -14 18 -29 -1 -17 -22
-33 -73 -50 -159 l-12 -60 -13 30 c-7 17 -23 67 -35 112 -27 95 -31 103 -50
103 -19 0 -32 -27 -46 -90 -9 -40 -14 -49 -24 -40 -37 31 -94 240 -114 419
-11 98 7 356 35 519 l6 32 144 0 144 0 0 -149z m440 0 c0 -123 -3 -150 -15
-155 -11 -4 -15 1 -15 17 0 31 -18 47 -52 47 -21 0 -29 6 -34 25 -8 33 -25 28
-46 -16 -15 -27 -18 -60 -18 -172 0 -155 8 -179 67 -204 33 -13 58 -10 48 7
-3 5 -9 31 -15 58 -12 67 2 120 36 128 14 4 29 3 34 -2 35 -39 96 -399 75
-451 -6 -17 -7 -17 -16 0 -6 9 -13 17 -17 17 -17 0 -41 -60 -58 -142 -10 -49
-21 -85 -25 -80 -4 4 -22 54 -39 112 -17 57 -35 109 -40 114 -19 19 -38 -5
-56 -69 -18 -68 -18 -68 -36 -45 -46 56 -108 345 -108 502 0 80 21 325 36 421
l6 37 144 0 144 0 0 -149z"/>
</g>
</svg>
